<svg width="34" height="29" viewBox="0 0 34 29" fill="none" xmlns="http://www.w3.org/2000/svg">
<path d="M32.3 0H1.7C1.24929 0.000516594 0.817196 0.176952 0.498498 0.490603C0.1798 0.804254 0.000524907 1.22951 0 1.67308V27.3269C0.000524907 27.7705 0.1798 28.1957 0.498498 28.5094C0.817196 28.823 1.24929 28.9995 1.7 29H7.93333V24.8994C7.93345 24.6509 8.00104 24.4069 8.12911 24.1927C8.25718 23.9785 8.44108 23.8018 8.66178 23.681L15.177 20.1171L13.0333 14.8429V10.5962C13.0333 9.56079 13.4512 8.56783 14.1951 7.83572C14.939 7.1036 15.948 6.69231 17 6.69231C18.052 6.69231 19.061 7.1036 19.8049 7.83572C20.5488 8.56783 20.9667 9.56079 20.9667 10.5962V14.8429L18.823 20.1169L25.3382 23.681C25.5589 23.8018 25.7428 23.9785 25.8709 24.1927C25.9989 24.4069 26.0665 24.6509 26.0667 24.8994V29H32.3C32.7507 28.9995 33.1828 28.823 33.5015 28.5094C33.8202 28.1957 33.9995 27.7705 34 27.3269V1.67308C33.9995 1.22951 33.8202 0.804254 33.5015 0.490603C33.1828 0.176952 32.7507 0.000516594 32.3 0V0ZM31.7333 26.7692H28.3333V24.8994C28.3331 24.2531 28.1574 23.6186 27.8245 23.0616C27.4915 22.5045 27.0133 22.0451 26.4394 21.731V21.731L21.669 19.1219L23.2333 15.2725V10.5962C23.2333 8.96915 22.5766 7.40879 21.4076 6.25833C20.2387 5.10786 18.6532 4.46154 17 4.46154C15.3468 4.46154 13.7613 5.10786 12.5924 6.25833C11.4234 7.40879 10.7667 8.96915 10.7667 10.5962V15.2725L12.331 19.1219L7.56061 21.7313C6.98676 22.0454 6.50861 22.5048 6.17563 23.0618C5.84265 23.6187 5.66694 24.2532 5.66667 24.8994V26.7692H2.26667V2.23077H31.7333V26.7692Z" fill="black"/>
</svg>
